ffmpeg started on 2026-04-01 at 11:47:49
Report written to "D:\Convert\FFMetrics\reports\psnr_report-6.txt"
Log level: 32
Command line:
ffmpeg -hide_banner -nostdin -r 24000/1001 -i "F:\\Convert\\files\\[DC] Make Heroine ga Oosugiru - 07_Telegram_HEVC(275).mkv" -r 24000/1001 -i "F:\\Convert\\files\\[DC] Make Heroine ga Oosugiru - 07_Telegram.mp4" -lavfi "[0:v]settb=AVTB,setpts=PTS-STARTPTS,format=pix_fmts=yuv420p10le,fps=24000/1001,scale=1920:1080:flags=lanczos:param0=3:out_range=limited:out_color_matrix=bt709:out_chroma_loc=left,setsar=1/1,setdar=(1920/1080)*(1/1),colorspace=format=yuv420p10:range=tv:primaries=bt709:trc=bt709:space=bt709:fast=0[main];[1:v]settb=AVTB,setpts=PTS-STARTPTS,format=pix_fmts=yuv420p,fps=24000/1001,scale=1920:1080:flags=lanczos:param0=3:out_range=limited:out_color_matrix=bt709:out_chroma_loc=left,setsar=1/1,setdar=(1920/1080)*(1/1),colorspace=format=yuv420p:range=tv:primaries=bt709:trc=bt709:space=bt709:fast=0[ref];[main][ref]psnr=eof_action=endall:stats_file='D\\:/Convert/FFMetrics/logs/psnr_logfile-6.txt'" -f null -
Input #0, matroska,webm, from 'F:\Convert\files\[DC] Make Heroine ga Oosugiru - 07_Telegram_HEVC(275).mkv':
  Metadata:
    COMPATIBLE_BRANDS: isomiso2avc1mp41
    MAJOR_BRAND     : isom
    MINOR_VERSION   : 512
    ENCODER         : Lavf61.7.100
  Duration: 00:24:06.79, start: -0.021000, bitrate: 988 kb/s
  Stream #0:0: Video: hevc (Main 10), yuv420p10le(tv, bt709, progressive), 1920x1080 [SAR 1:1 DAR 16:9], 23.98 fps, 23.98 tbr, 1k tbn (default)
      Metadata:
        HANDLER_NAME    : VideoHandler
        VENDOR_ID       : [0][0][0][0]
        ENCODER         : Lavc61.19.100 libx265
        BPS             : 791249
        DURATION        : 00:24:06.569708333
        NUMBER_OF_FRAMES: 34683
        NUMBER_OF_BYTES : 143074571
        _STATISTICS_WRITING_APP: mkvpropedit v94.0 ('Initiate') 64-bit
        _STATISTICS_WRITING_DATE_UTC: 2026-03-30 13:02:30
        _STATISTICS_TAGS: BPS DURATION NUMBER_OF_FRAMES NUMBER_OF_BYTES
  Stream #0:1: Audio: aac (LC), 48000 Hz, stereo, fltp (default)
      Metadata:
        HANDLER_NAME    : SoundHandler
        VENDOR_ID       : [0][0][0][0]
        ENCODER         : Lavc61.19.100 aac
        BPS             : 193194
        DURATION        : 00:24:06.784000000
        NUMBER_OF_FRAMES: 67819
        NUMBER_OF_BYTES : 34938755
        _STATISTICS_WRITING_APP: mkvpropedit v94.0 ('Initiate') 64-bit
        _STATISTICS_WRITING_DATE_UTC: 2026-03-30 13:02:30
        _STATISTICS_TAGS: BPS DURATION NUMBER_OF_FRAMES NUMBER_OF_BYTES
Input #1, mov,mp4,m4a,3gp,3g2,mj2, from 'F:\Convert\files\[DC] Make Heroine ga Oosugiru - 07_Telegram.mp4':
  Metadata:
    major_brand     : isom
    minor_version   : 512
    compatible_brands: isomiso2avc1mp41
    encoder         : Lavf60.16.100
  Duration: 00:24:06.74, start: 0.000000, bitrate: 3764 kb/s
  Stream #1:0[0x1](und): Video: h264 (High) (avc1 / 0x31637661), yuv420p(tv, bt709, progressive), 1920x1080 [SAR 1:1 DAR 16:9], 3616 kb/s, 23.98 fps, 23.98 tbr, 24k tbn (default)
      Metadata:
        handler_name    : VideoHandler
        vendor_id       : [0][0][0][0]
        encoder         : Lavc60.31.102 h264_qsv
  Stream #1:1[0x2](und): Audio: aac (HE-AACv2) (mp4a / 0x6134706D), 48000 Hz, stereo, fltp, 144 kb/s (default)
      Metadata:
        handler_name    : SoundHandler
        vendor_id       : [0][0][0][0]
Stream mapping:
  Stream #0:0 (hevc) -> settb:default
  Stream #1:0 (h264) -> settb:default
  psnr:default -> Stream #0:0 (wrapped_avframe)
  Stream #0:1 -> #0:1 (aac (native) -> pcm_s16le (native))
Output #0, null, to 'pipe:':
  Metadata:
    COMPATIBLE_BRANDS: isomiso2avc1mp41
    MAJOR_BRAND     : isom
    MINOR_VERSION   : 512
    encoder         : Lavf61.7.100
  Stream #0:0: Video: wrapped_avframe, yuv420p10le(tv, bt709, progressive), 1920x1080 [SAR 1:1 DAR 16:9], q=2-31, 200 kb/s, 23.98 fps, 23.98 tbn
      Metadata:
        encoder         : Lavc61.19.100 wrapped_avframe
  Stream #0:1: Audio: pcm_s16le, 48000 Hz, stereo, s16, 1536 kb/s (default)
      Metadata:
        HANDLER_NAME    : SoundHandler
        VENDOR_ID       : [0][0][0][0]
        _STATISTICS_TAGS: BPS DURATION NUMBER_OF_FRAMES NUMBER_OF_BYTES
        BPS             : 193194
        DURATION        : 00:24:06.784000000
        NUMBER_OF_FRAMES: 67819
        NUMBER_OF_BYTES : 34938755
        _STATISTICS_WRITING_APP: mkvpropedit v94.0 ('Initiate') 64-bit
        _STATISTICS_WRITING_DATE_UTC: 2026-03-30 13:02:30
        encoder         : Lavc61.19.100 pcm_s16le
frame=  122 fps=0.0 q=-0.0 size=N/A time=00:00:05.08 bitrate=N/A speed=9.63x    frame=  297 fps=286 q=-0.0 size=N/A time=00:00:12.38 bitrate=N/A speed=11.9x    frame=  490 fps=316 q=-0.0 size=N/A time=00:00:20.43 bitrate=N/A speed=13.2x    frame=  679 fps=329 q=-0.0 size=N/A time=00:00:28.31 bitrate=N/A speed=13.7x    frame=  875 fps=338 q=-0.0 size=N/A time=00:00:36.49 bitrate=N/A speed=14.1x    frame=  995 fps=321 q=-0.0 size=N/A time=00:00:41.49 bitrate=N/A speed=13.4x    frame= 1158 fps=321 q=-0.0 size=N/A time=00:00:48.29 bitrate=N/A speed=13.4x    frame= 1310 fps=318 q=-0.0 size=N/A time=00:00:54.63 bitrate=N/A speed=13.2x    frame= 1478 fps=318 q=-0.0 size=N/A time=00:01:01.64 bitrate=N/A speed=13.3x    frame= 1608 fps=312 q=-0.0 size=N/A time=00:01:07.06 bitrate=N/A speed=  13x    frame= 1750 fps=309 q=-0.0 size=N/A time=00:01:12.98 bitrate=N/A speed=12.9x    frame= 1899 fps=306 q=-0.0 size=N/A time=00:01:19.20 bitrate=N/A speed=12.8x    frame= 2048 fps=305 q=-0.0 size=N/A time=00:01:25.41 bitrate=N/A speed=12.7x    frame= 2154 fps=298 q=-0.0 size=N/A time=00:01:29.83 bitrate=N/A speed=12.4x    frame= 2288 fps=296 q=-0.0 size=N/A time=00:01:35.42 bitrate=N/A speed=12.3x    frame= 2429 fps=294 q=-0.0 size=N/A time=00:01:41.30 bitrate=N/A speed=12.3x    frame= 2552 fps=291 q=-0.0 size=N/A time=00:01:46.43 bitrate=N/A speed=12.1x    frame= 2704 fps=291 q=-0.0 size=N/A time=00:01:52.77 bitrate=N/A speed=12.1x    frame= 2859 fps=292 q=-0.0 size=N/A time=00:01:59.24 bitrate=N/A speed=12.2x    frame= 3025 fps=293 q=-0.0 size=N/A time=00:02:06.16 bitrate=N/A speed=12.2x    frame= 3196 fps=295 q=-0.0 size=N/A time=00:02:13.29 bitrate=N/A speed=12.3x    frame= 3383 fps=298 q=-0.0 size=N/A time=00:02:21.09 bitrate=N/A speed=12.4x    frame= 3570 fps=301 q=-0.0 size=N/A time=00:02:28.89 bitrate=N/A speed=12.6x    frame= 3746 fps=303 q=-0.0 size=N/A time=00:02:36.23 bitrate=N/A speed=12.6x    frame= 3929 fps=305 q=-0.0 size=N/A time=00:02:43.87 bitrate=N/A speed=12.7x    frame= 4120 fps=307 q=-0.0 size=N/A time=00:02:51.83 bitrate=N/A speed=12.8x    frame= 4296 fps=308 q=-0.0 size=N/A time=00:02:59.17 bitrate=N/A speed=12.9x    frame= 4458 fps=309 q=-0.0 size=N/A time=00:03:05.93 bitrate=N/A speed=12.9x    frame= 4626 fps=309 q=-0.0 size=N/A time=00:03:12.94 bitrate=N/A speed=12.9x    frame= 4809 fps=311 q=-0.0 size=N/A time=00:03:20.57 bitrate=N/A speed=  13x    frame= 4978 fps=311 q=-0.0 size=N/A time=00:03:27.62 bitrate=N/A speed=  13x    frame= 5165 fps=313 q=-0.0 size=N/A time=00:03:35.42 bitrate=N/A speed=13.1x    frame= 5357 fps=315 q=-0.0 size=N/A time=00:03:43.43 bitrate=N/A speed=13.1x    frame= 5540 fps=316 q=-0.0 size=N/A time=00:03:51.06 bitrate=N/A speed=13.2x    frame= 5724 fps=317 q=-0.0 size=N/A time=00:03:58.73 bitrate=N/A speed=13.2x    frame= 5910 fps=318 q=-0.0 size=N/A time=00:04:06.49 bitrate=N/A speed=13.3x    frame= 6104 fps=320 q=-0.0 size=N/A time=00:04:14.58 bitrate=N/A speed=13.3x    frame= 6283 fps=321 q=-0.0 size=N/A time=00:04:22.05 bitrate=N/A speed=13.4x    frame= 6460 fps=321 q=-0.0 size=N/A time=00:04:29.43 bitrate=N/A speed=13.4x    frame= 6634 fps=322 q=-0.0 size=N/A time=00:04:36.69 bitrate=N/A speed=13.4x    frame= 6812 fps=322 q=-0.0 size=N/A time=00:04:44.11 bitrate=N/A speed=13.4x    frame= 7003 fps=323 q=-0.0 size=N/A time=00:04:52.08 bitrate=N/A speed=13.5x    frame= 7180 fps=324 q=-0.0 size=N/A time=00:04:59.46 bitrate=N/A speed=13.5x    frame= 7371 fps=325 q=-0.0 size=N/A time=00:05:07.43 bitrate=N/A speed=13.6x    frame= 7550 fps=325 q=-0.0 size=N/A time=00:05:14.89 bitrate=N/A speed=13.6x    frame= 7723 fps=325 q=-0.0 size=N/A time=00:05:22.11 bitrate=N/A speed=13.6x    frame= 7898 fps=326 q=-0.0 size=N/A time=00:05:29.41 bitrate=N/A speed=13.6x    frame= 8072 fps=326 q=-0.0 size=N/A time=00:05:36.66 bitrate=N/A speed=13.6x    frame= 8266 fps=327 q=-0.0 size=N/A time=00:05:44.76 bitrate=N/A speed=13.6x    frame= 8431 fps=327 q=-0.0 size=N/A time=00:05:51.64 bitrate=N/A speed=13.6x    frame= 8612 fps=327 q=-0.0 size=N/A time=00:05:59.19 bitrate=N/A speed=13.7x    frame= 8803 fps=328 q=-0.0 size=N/A time=00:06:07.15 bitrate=N/A speed=13.7x    frame= 8992 fps=329 q=-0.0 size=N/A time=00:06:15.04 bitrate=N/A speed=13.7x    frame= 9182 fps=330 q=-0.0 size=N/A time=00:06:22.96 bitrate=N/A speed=13.8x    frame= 9373 fps=330 q=-0.0 size=N/A time=00:06:30.93 bitrate=N/A speed=13.8x    frame= 9560 fps=331 q=-0.0 size=N/A time=00:06:38.73 bitrate=N/A speed=13.8x    frame= 9748 fps=332 q=-0.0 size=N/A time=00:06:46.57 bitrate=N/A speed=13.8x    frame= 9928 fps=332 q=-0.0 size=N/A time=00:06:54.08 bitrate=N/A speed=13.8x    frame=10101 fps=332 q=-0.0 size=N/A time=00:07:01.29 bitrate=N/A speed=13.8x    frame=10284 fps=332 q=-0.0 size=N/A time=00:07:08.92 bitrate=N/A speed=13.9x    frame=10474 fps=333 q=-0.0 size=N/A time=00:07:16.85 bitrate=N/A speed=13.9x    frame=10659 fps=333 q=-0.0 size=N/A time=00:07:24.56 bitrate=N/A speed=13.9x    frame=10842 fps=334 q=-0.0 size=N/A time=00:07:32.20 bitrate=N/A speed=13.9x    frame=11026 fps=334 q=-0.0 size=N/A time=00:07:39.87 bitrate=N/A speed=13.9x    frame=11189 fps=334 q=-0.0 size=N/A time=00:07:46.67 bitrate=N/A speed=13.9x    frame=11364 fps=334 q=-0.0 size=N/A time=00:07:53.97 bitrate=N/A speed=13.9x    frame=11537 fps=334 q=-0.0 size=N/A time=00:08:01.18 bitrate=N/A speed=13.9x    frame=11721 fps=334 q=-0.0 size=N/A time=00:08:08.86 bitrate=N/A speed=13.9x    frame=11907 fps=335 q=-0.0 size=N/A time=00:08:16.62 bitrate=N/A speed=  14x    frame=12103 fps=335 q=-0.0 size=N/A time=00:08:24.79 bitrate=N/A speed=  14x    frame=12288 fps=336 q=-0.0 size=N/A time=00:08:32.51 bitrate=N/A speed=  14x    frame=12456 fps=335 q=-0.0 size=N/A time=00:08:39.51 bitrate=N/A speed=  14x    frame=12628 fps=335 q=-0.0 size=N/A time=00:08:46.69 bitrate=N/A speed=  14x    frame=12833 fps=336 q=-0.0 size=N/A time=00:08:55.24 bitrate=N/A speed=  14x    frame=13006 fps=336 q=-0.0 size=N/A time=00:09:02.45 bitrate=N/A speed=  14x    frame=13182 fps=336 q=-0.0 size=N/A time=00:09:09.79 bitrate=N/A speed=  14x    frame=13374 fps=337 q=-0.0 size=N/A time=00:09:17.80 bitrate=N/A speed=  14x    frame=13557 fps=337 q=-0.0 size=N/A time=00:09:25.43 bitrate=N/A speed=14.1x    frame=13745 fps=337 q=-0.0 size=N/A time=00:09:33.28 bitrate=N/A speed=14.1x    frame=13913 fps=337 q=-0.0 size=N/A time=00:09:40.28 bitrate=N/A speed=14.1x    frame=14082 fps=337 q=-0.0 size=N/A time=00:09:47.33 bitrate=N/A speed=14.1x    frame=14238 fps=337 q=-0.0 size=N/A time=00:09:53.84 bitrate=N/A speed=  14x    frame=14419 fps=337 q=-0.0 size=N/A time=00:10:01.39 bitrate=N/A speed=  14x    frame=14600 fps=337 q=-0.0 size=N/A time=00:10:08.94 bitrate=N/A speed=14.1x    frame=14791 fps=337 q=-0.0 size=N/A time=00:10:16.90 bitrate=N/A speed=14.1x    frame=14964 fps=337 q=-0.0 size=N/A time=00:10:24.12 bitrate=N/A speed=14.1x    frame=15124 fps=337 q=-0.0 size=N/A time=00:10:30.79 bitrate=N/A speed=14.1x    frame=15295 fps=337 q=-0.0 size=N/A time=00:10:37.92 bitrate=N/A speed=14.1x    frame=15476 fps=337 q=-0.0 size=N/A time=00:10:45.47 bitrate=N/A speed=14.1x    frame=15653 fps=337 q=-0.0 size=N/A time=00:10:52.86 bitrate=N/A speed=14.1x    frame=15847 fps=338 q=-0.0 size=N/A time=00:11:00.95 bitrate=N/A speed=14.1x    frame=16034 fps=338 q=-0.0 size=N/A time=00:11:08.75 bitrate=N/A speed=14.1x    frame=16224 fps=338 q=-0.0 size=N/A time=00:11:16.67 bitrate=N/A speed=14.1x    frame=16419 fps=339 q=-0.0 size=N/A time=00:11:24.80 bitrate=N/A speed=14.1x    frame=16588 fps=338 q=-0.0 size=N/A time=00:11:31.85 bitrate=N/A speed=14.1x    frame=16769 fps=339 q=-0.0 size=N/A time=00:11:39.40 bitrate=N/A speed=14.1x    frame=16931 fps=338 q=-0.0 size=N/A time=00:11:46.16 bitrate=N/A speed=14.1x    frame=17118 fps=339 q=-0.0 size=N/A time=00:11:53.96 bitrate=N/A speed=14.1x    frame=17310 fps=339 q=-0.0 size=N/A time=00:12:01.97 bitrate=N/A speed=14.1x    frame=17492 fps=339 q=-0.0 size=N/A time=00:12:09.56 bitrate=N/A speed=14.1x    frame=17681 fps=339 q=-0.0 size=N/A time=00:12:17.44 bitrate=N/A speed=14.2x    frame=17869 fps=339 q=-0.0 size=N/A time=00:12:25.28 bitrate=N/A speed=14.2x    frame=18037 fps=339 q=-0.0 size=N/A time=00:12:32.29 bitrate=N/A speed=14.2x    frame=18218 fps=340 q=-0.0 size=N/A time=00:12:39.84 bitrate=N/A speed=14.2x    frame=18395 fps=339 q=-0.0 size=N/A time=00:12:47.22 bitrate=N/A speed=14.2x    frame=18567 fps=339 q=-0.0 size=N/A time=00:12:54.39 bitrate=N/A speed=14.2x    frame=18741 fps=339 q=-0.0 size=N/A time=00:13:01.65 bitrate=N/A speed=14.2x    frame=18919 fps=339 q=-0.0 size=N/A time=00:13:09.07 bitrate=N/A speed=14.2x    frame=19104 fps=340 q=-0.0 size=N/A time=00:13:16.79 bitrate=N/A speed=14.2x    frame=19279 fps=340 q=-0.0 size=N/A time=00:13:24.09 bitrate=N/A speed=14.2x    frame=19455 fps=340 q=-0.0 size=N/A time=00:13:31.43 bitrate=N/A speed=14.2x    frame=19655 fps=340 q=-0.0 size=N/A time=00:13:39.77 bitrate=N/A speed=14.2x    frame=19837 fps=340 q=-0.0 size=N/A time=00:13:47.36 bitrate=N/A speed=14.2x    frame=20006 fps=340 q=-0.0 size=N/A time=00:13:54.41 bitrate=N/A speed=14.2x    frame=20198 fps=340 q=-0.0 size=N/A time=00:14:02.42 bitrate=N/A speed=14.2x    frame=20384 fps=341 q=-0.0 size=N/A time=00:14:10.18 bitrate=N/A speed=14.2x    frame=20563 fps=341 q=-0.0 size=N/A time=00:14:17.64 bitrate=N/A speed=14.2x    frame=20740 fps=341 q=-0.0 size=N/A time=00:14:25.03 bitrate=N/A speed=14.2x    frame=20938 fps=341 q=-0.0 size=N/A time=00:14:33.28 bitrate=N/A speed=14.2x    frame=21126 fps=341 q=-0.0 size=N/A time=00:14:41.13 bitrate=N/A speed=14.2x    frame=21299 fps=341 q=-0.0 size=N/A time=00:14:48.34 bitrate=N/A speed=14.2x    frame=21490 fps=341 q=-0.0 size=N/A time=00:14:56.31 bitrate=N/A speed=14.2x    frame=21659 fps=341 q=-0.0 size=N/A time=00:15:03.36 bitrate=N/A speed=14.2x    frame=21828 fps=341 q=-0.0 size=N/A time=00:15:10.40 bitrate=N/A speed=14.2x    frame=22008 fps=341 q=-0.0 size=N/A time=00:15:17.91 bitrate=N/A speed=14.2x    frame=22185 fps=341 q=-0.0 size=N/A time=00:15:25.29 bitrate=N/A speed=14.2x    frame=22361 fps=341 q=-0.0 size=N/A time=00:15:32.64 bitrate=N/A speed=14.2x    frame=22544 fps=341 q=-0.0 size=N/A time=00:15:40.27 bitrate=N/A speed=14.2x    frame=22728 fps=342 q=-0.0 size=N/A time=00:15:47.94 bitrate=N/A speed=14.2x    frame=22908 fps=342 q=-0.0 size=N/A time=00:15:55.45 bitrate=N/A speed=14.2x    frame=23088 fps=342 q=-0.0 size=N/A time=00:16:02.96 bitrate=N/A speed=14.2x    frame=23267 fps=342 q=-0.0 size=N/A time=00:16:10.42 bitrate=N/A speed=14.3x    frame=23450 fps=342 q=-0.0 size=N/A time=00:16:18.06 bitrate=N/A speed=14.3x    frame=23647 fps=342 q=-0.0 size=N/A time=00:16:26.27 bitrate=N/A speed=14.3x    frame=23827 fps=342 q=-0.0 size=N/A time=00:16:33.78 bitrate=N/A speed=14.3x    frame=23994 fps=342 q=-0.0 size=N/A time=00:16:40.74 bitrate=N/A speed=14.3x    frame=24149 fps=342 q=-0.0 size=N/A time=00:16:47.21 bitrate=N/A speed=14.2x    frame=24328 fps=342 q=-0.0 size=N/A time=00:16:54.68 bitrate=N/A speed=14.2x    frame=24515 fps=342 q=-0.0 size=N/A time=00:17:02.47 bitrate=N/A speed=14.3x    frame=24700 fps=342 q=-0.0 size=N/A time=00:17:10.19 bitrate=N/A speed=14.3x    frame=24878 fps=342 q=-0.0 size=N/A time=00:17:17.61 bitrate=N/A speed=14.3x    frame=25042 fps=342 q=-0.0 size=N/A time=00:17:24.46 bitrate=N/A speed=14.3x    frame=25228 fps=342 q=-0.0 size=N/A time=00:17:32.21 bitrate=N/A speed=14.3x    frame=25418 fps=342 q=-0.0 size=N/A time=00:17:40.14 bitrate=N/A speed=14.3x    frame=25599 fps=342 q=-0.0 size=N/A time=00:17:47.69 bitrate=N/A speed=14.3x    frame=25787 fps=342 q=-0.0 size=N/A time=00:17:55.53 bitrate=N/A speed=14.3x    frame=25969 fps=342 q=-0.0 size=N/A time=00:18:03.12 bitrate=N/A speed=14.3x    frame=26150 fps=342 q=-0.0 size=N/A time=00:18:10.67 bitrate=N/A speed=14.3x    frame=26330 fps=342 q=-0.0 size=N/A time=00:18:18.18 bitrate=N/A speed=14.3x    frame=26515 fps=343 q=-0.0 size=N/A time=00:18:25.89 bitrate=N/A speed=14.3x    frame=26705 fps=343 q=-0.0 size=N/A time=00:18:33.82 bitrate=N/A speed=14.3x    frame=26878 fps=343 q=-0.0 size=N/A time=00:18:41.03 bitrate=N/A speed=14.3x    frame=27051 fps=343 q=-0.0 size=N/A time=00:18:48.25 bitrate=N/A speed=14.3x    frame=27227 fps=343 q=-0.0 size=N/A time=00:18:55.59 bitrate=N/A speed=14.3x    frame=27416 fps=343 q=-0.0 size=N/A time=00:19:03.47 bitrate=N/A speed=14.3x    frame=27603 fps=343 q=-0.0 size=N/A time=00:19:11.27 bitrate=N/A speed=14.3x    frame=27788 fps=343 q=-0.0 size=N/A time=00:19:18.99 bitrate=N/A speed=14.3x    frame=27967 fps=343 q=-0.0 size=N/A time=00:19:26.45 bitrate=N/A speed=14.3x    frame=28148 fps=343 q=-0.0 size=N/A time=00:19:34.00 bitrate=N/A speed=14.3x    frame=28336 fps=343 q=-0.0 size=N/A time=00:19:41.84 bitrate=N/A speed=14.3x    frame=28521 fps=343 q=-0.0 size=N/A time=00:19:49.56 bitrate=N/A speed=14.3x    frame=28703 fps=343 q=-0.0 size=N/A time=00:19:57.15 bitrate=N/A speed=14.3x    frame=28855 fps=343 q=-0.0 size=N/A time=00:20:03.49 bitrate=N/A speed=14.3x    frame=29006 fps=343 q=-0.0 size=N/A time=00:20:09.79 bitrate=N/A speed=14.3x    frame=29163 fps=342 q=-0.0 size=N/A time=00:20:16.34 bitrate=N/A speed=14.3x    frame=29323 fps=342 q=-0.0 size=N/A time=00:20:23.01 bitrate=N/A speed=14.3x    frame=29496 fps=342 q=-0.0 size=N/A time=00:20:30.22 bitrate=N/A speed=14.3x    frame=29653 fps=342 q=-0.0 size=N/A time=00:20:36.77 bitrate=N/A speed=14.3x    frame=29806 fps=342 q=-0.0 size=N/A time=00:20:43.15 bitrate=N/A speed=14.3x    frame=29970 fps=342 q=-0.0 size=N/A time=00:20:49.99 bitrate=N/A speed=14.2x    frame=30134 fps=341 q=-0.0 size=N/A time=00:20:56.83 bitrate=N/A speed=14.2x    frame=30312 fps=341 q=-0.0 size=N/A time=00:21:04.26 bitrate=N/A speed=14.2x    frame=30487 fps=341 q=-0.0 size=N/A time=00:21:11.56 bitrate=N/A speed=14.2x    frame=30673 fps=342 q=-0.0 size=N/A time=00:21:19.31 bitrate=N/A speed=14.2x    frame=30853 fps=342 q=-0.0 size=N/A time=00:21:26.82 bitrate=N/A speed=14.2x    frame=31017 fps=341 q=-0.0 size=N/A time=00:21:33.66 bitrate=N/A speed=14.2x    frame=31194 fps=341 q=-0.0 size=N/A time=00:21:41.04 bitrate=N/A speed=14.2x    frame=31358 fps=341 q=-0.0 size=N/A time=00:21:47.88 bitrate=N/A speed=14.2x    frame=31535 fps=341 q=-0.0 size=N/A time=00:21:55.27 bitrate=N/A speed=14.2x    frame=31713 fps=341 q=-0.0 size=N/A time=00:22:02.69 bitrate=N/A speed=14.2x    frame=31879 fps=341 q=-0.0 size=N/A time=00:22:09.61 bitrate=N/A speed=14.2x    frame=32044 fps=341 q=-0.0 size=N/A time=00:22:16.50 bitrate=N/A speed=14.2x    frame=32220 fps=341 q=-0.0 size=N/A time=00:22:23.84 bitrate=N/A speed=14.2x    frame=32390 fps=341 q=-0.0 size=N/A time=00:22:30.93 bitrate=N/A speed=14.2x    frame=32559 fps=341 q=-0.0 size=N/A time=00:22:37.98 bitrate=N/A speed=14.2x    frame=32701 fps=341 q=-0.0 size=N/A time=00:22:43.90 bitrate=N/A speed=14.2x    frame=32845 fps=340 q=-0.0 size=N/A time=00:22:49.91 bitrate=N/A speed=14.2x    frame=33018 fps=340 q=-0.0 size=N/A time=00:22:57.12 bitrate=N/A speed=14.2x    frame=33200 fps=340 q=-0.0 size=N/A time=00:23:04.71 bitrate=N/A speed=14.2x    frame=33365 fps=340 q=-0.0 size=N/A time=00:23:11.59 bitrate=N/A speed=14.2x    frame=33506 fps=340 q=-0.0 size=N/A time=00:23:17.47 bitrate=N/A speed=14.2x    frame=33646 fps=340 q=-0.0 size=N/A time=00:23:23.31 bitrate=N/A speed=14.2x    frame=33776 fps=339 q=-0.0 size=N/A time=00:23:28.74 bitrate=N/A speed=14.1x    frame=33900 fps=339 q=-0.0 size=N/A time=00:23:33.91 bitrate=N/A speed=14.1x    frame=34059 fps=338 q=-0.0 size=N/A time=00:23:40.54 bitrate=N/A speed=14.1x    frame=34212 fps=338 q=-0.0 size=N/A time=00:23:46.92 bitrate=N/A speed=14.1x    frame=34348 fps=338 q=-0.0 size=N/A time=00:23:52.59 bitrate=N/A speed=14.1x    frame=34478 fps=337 q=-0.0 size=N/A time=00:23:58.01 bitrate=N/A speed=14.1x    frame=34639 fps=337 q=-0.0 size=N/A time=00:24:04.73 bitrate=N/A speed=14.1x    [Parsed_psnr_16 @ 0000021ebe64aa40] PSNR y:48.931144 u:50.320253 v:50.371836 average:49.353527 min:38.042785 max:inf
[out#0/null @ 0000021eb18bdec0] video:14903KiB audio:271276KiB subtitle:0KiB other streams:0KiB global headers:0KiB muxing overhead: unknown
frame=34683 fps=337 q=-0.0 Lsize=N/A time=00:24:06.57 bitrate=N/A speed=14.1x    
